<svg width="25" height="24" viewBox="0 0 25 24" xmlns="http://www.w3.org/2000/svg">
<path fill-rule="evenodd" clip-rule="evenodd" d="M24.5 12C24.5 18.6274 19.1274 24 12.5 24C5.87258 24 0.5 18.6274 0.5 12C0.5 5.37258 5.87258 0 12.5 0C19.1274 0 24.5 5.37258 24.5 12ZM8.73715 11.9971C8.22537 11.493 7.39562 11.493 6.88383 11.9971C6.37206 12.5012 6.37206 13.3186 6.88383 13.8227L9.71798 16.6144C10.2399 17.1285 11.0861 17.1285 11.608 16.6144L18.1162 10.2037C18.6279 9.69955 18.6279 8.88221 18.1162 8.37809C17.6044 7.87397 16.7746 7.87397 16.2628 8.37809L10.663 13.8941L8.73715 11.9971Z"/>
</svg>
